<svg width="24" height="24" viewBox="0 0 24 24" fill="none" xmlns="http://www.w3.org/2000/svg">
<path d="M1.44382 6.64799C1.10898 6.74367 0.804917 6.92511 0.561729 7.17438C0.318541 7.42364 0.144653 7.73209 0.0572715 8.06919C-0.0301104 8.40629 -0.0279575 8.76036 0.0635171 9.09638C0.154992 9.43239 0.332618 9.7387 0.578818 9.98499L3.99082 13.393V19.979H10.5838L14.0188 23.409C14.2032 23.5949 14.4225 23.7426 14.6641 23.8435C14.9058 23.9444 15.165 23.9966 15.4268 23.997C15.5989 23.9966 15.7703 23.9745 15.9368 23.931C16.2738 23.8461 16.5824 23.674 16.8317 23.4319C17.081 23.1898 17.2621 22.8863 17.3568 22.552L23.9908 0L1.44382 6.64799ZM1.99982 8.57099L19.0278 3.551L5.99282 16.565V12.565L1.99982 8.57099ZM15.4398 21.995L11.4128 17.979H7.41282L20.4458 4.95699L15.4398 21.995Z" fill="#374957"/>
</svg>
